<svg width="244" height="234" viewBox="0 0 244 234" fill="none" xmlns="http://www.w3.org/2000/svg">
<circle cx="121.001" cy="124" r="105" fill="#B7D9FF"/>
<circle cx="121.001" cy="124" r="105" stroke="black"/>
<circle cx="95" cy="95" r="95" transform="matrix(1 0 0 -1 26.0006 219)" fill="white"/>
<path d="M111.561 162.72C109.694 162.72 108.081 162.413 106.721 161.8C105.387 161.187 104.294 160.387 103.441 159.4C102.587 158.387 101.947 157.267 101.521 156.04C101.121 154.813 100.921 153.587 100.921 152.36C100.921 150.36 101.374 148.587 102.281 147.04C103.187 145.493 104.441 144.28 106.041 143.4C107.641 142.493 109.481 142.04 111.561 142.04C113.107 142.04 114.441 142.293 115.561 142.8C116.707 143.28 117.641 143.92 118.361 144.72C119.107 145.493 119.654 146.333 120.001 147.24C120.374 148.147 120.561 149.013 120.561 149.84C120.561 151.307 120.201 152.4 119.481 153.12C118.787 153.813 117.894 154.16 116.801 154.16H107.281C107.334 154.853 107.574 155.44 108.001 155.92C108.454 156.4 109.014 156.773 109.681 157.04C110.347 157.307 111.054 157.44 111.801 157.44C112.441 157.44 113.001 157.413 113.481 157.36C113.961 157.28 114.374 157.187 114.721 157.08C115.067 156.947 115.387 156.827 115.681 156.72C115.974 156.587 116.227 156.48 116.441 156.4C116.681 156.32 116.907 156.267 117.121 156.24C117.521 156.213 117.881 156.333 118.201 156.6C118.547 156.84 118.854 157.213 119.121 157.72C119.307 158.013 119.427 158.293 119.481 158.56C119.561 158.827 119.601 159.093 119.601 159.36C119.601 160 119.267 160.573 118.601 161.08C117.961 161.587 117.041 161.987 115.841 162.28C114.667 162.573 113.241 162.72 111.561 162.72ZM107.281 150.88H113.601C114.027 150.88 114.334 150.813 114.521 150.68C114.734 150.52 114.841 150.227 114.841 149.8C114.841 149.32 114.694 148.907 114.401 148.56C114.107 148.187 113.707 147.907 113.201 147.72C112.721 147.507 112.161 147.4 111.521 147.4C110.694 147.4 109.961 147.56 109.321 147.88C108.681 148.2 108.174 148.627 107.801 149.16C107.454 149.693 107.281 150.267 107.281 150.88ZM137.414 162.36C136.054 162.36 134.881 162.213 133.894 161.92C132.934 161.627 132.134 161.173 131.494 160.56C130.854 159.947 130.374 159.173 130.054 158.24C129.761 157.28 129.614 156.147 129.614 154.84V138.6C129.614 138.067 129.654 137.587 129.734 137.16C129.841 136.733 130.108 136.387 130.534 136.12C130.961 135.827 131.654 135.68 132.614 135.68C133.574 135.68 134.268 135.827 134.694 136.12C135.121 136.413 135.374 136.787 135.454 137.24C135.561 137.693 135.614 138.187 135.614 138.72V154.6C135.614 155.027 135.641 155.387 135.694 155.68C135.774 155.947 135.881 156.147 136.014 156.28C136.148 156.413 136.334 156.507 136.574 156.56C136.814 156.613 137.108 156.64 137.454 156.64C138.041 156.64 138.561 156.693 139.014 156.8C139.468 156.907 139.814 157.147 140.054 157.52C140.321 157.893 140.454 158.52 140.454 159.4C140.454 160.36 140.308 161.053 140.014 161.48C139.721 161.907 139.334 162.16 138.854 162.24C138.401 162.32 137.921 162.36 137.414 162.36ZM128.374 142.68H132.774L138.294 142.52C138.801 142.52 139.281 142.573 139.734 142.68C140.188 142.76 140.561 143.013 140.854 143.44C141.148 143.867 141.294 144.573 141.294 145.56C141.294 146.467 141.148 147.133 140.854 147.56C140.588 147.987 140.228 148.267 139.774 148.4C139.321 148.507 138.828 148.56 138.294 148.56L133.054 148.44H128.214C127.441 148.413 126.894 148.187 126.574 147.76C126.281 147.307 126.134 146.56 126.134 145.52C126.134 144.56 126.321 143.853 126.694 143.4C127.068 142.92 127.628 142.68 128.374 142.68ZM150.98 162.36C149.993 162.36 149.286 162.227 148.86 161.96C148.46 161.667 148.206 161.28 148.1 160.8C148.02 160.32 147.98 159.827 147.98 159.32V145.36C147.98 144.827 148.033 144.333 148.14 143.88C148.246 143.427 148.5 143.067 148.9 142.8C149.326 142.507 150.033 142.36 151.02 142.36C151.953 142.36 152.62 142.493 153.02 142.76C153.446 143 153.713 143.293 153.82 143.64C153.926 143.96 153.98 144.24 153.98 144.48L153.5 144.72C153.553 144.613 153.686 144.427 153.9 144.16C154.14 143.867 154.46 143.573 154.86 143.28C155.26 142.96 155.74 142.693 156.3 142.48C156.886 142.267 157.553 142.16 158.3 142.16C158.593 142.16 158.913 142.187 159.26 142.24C159.633 142.267 160.006 142.347 160.38 142.48C160.78 142.587 161.14 142.747 161.46 142.96C161.78 143.147 162.033 143.387 162.22 143.68C162.433 143.973 162.54 144.333 162.54 144.76C162.54 145.853 162.286 146.787 161.78 147.56C161.273 148.307 160.633 148.68 159.86 148.68C159.406 148.68 159.086 148.64 158.9 148.56C158.713 148.48 158.553 148.4 158.42 148.32C158.313 148.24 158.18 148.173 158.02 148.12C157.86 148.04 157.566 148 157.14 148C156.74 148 156.353 148.053 155.98 148.16C155.633 148.267 155.3 148.44 154.98 148.68C154.686 148.893 154.446 149.173 154.26 149.52C154.1 149.84 154.02 150.2 154.02 150.6V159.4C154.02 159.907 153.966 160.4 153.86 160.88C153.78 161.333 153.526 161.693 153.1 161.96C152.673 162.227 151.966 162.36 150.98 162.36ZM172.494 162.36C171.507 162.36 170.8 162.227 170.374 161.96C169.974 161.667 169.72 161.293 169.614 160.84C169.534 160.36 169.494 159.867 169.494 159.36V145.4C169.494 144.867 169.534 144.373 169.614 143.92C169.72 143.467 169.987 143.107 170.414 142.84C170.84 142.547 171.547 142.4 172.534 142.4C173.494 142.4 174.174 142.547 174.574 142.84C175 143.133 175.254 143.507 175.334 143.96C175.44 144.413 175.494 144.92 175.494 145.48V159.4C175.494 159.907 175.44 160.4 175.334 160.88C175.254 161.333 175 161.693 174.574 161.96C174.174 162.227 173.48 162.36 172.494 162.36ZM172.494 139.48C171.48 139.48 170.76 139.333 170.334 139.04C169.907 138.747 169.64 138.36 169.534 137.88C169.454 137.4 169.414 136.893 169.414 136.36C169.414 135.8 169.467 135.293 169.574 134.84C169.68 134.36 169.947 133.987 170.374 133.72C170.8 133.427 171.52 133.28 172.534 133.28C173.52 133.28 174.227 133.427 174.654 133.72C175.08 134.013 175.334 134.4 175.414 134.88C175.52 135.36 175.574 135.867 175.574 136.4C175.574 136.933 175.52 137.44 175.414 137.92C175.334 138.4 175.08 138.787 174.654 139.08C174.227 139.347 173.507 139.48 172.494 139.48ZM192.636 162.52C191.463 162.52 190.263 162.307 189.036 161.88C187.836 161.427 186.716 160.773 185.676 159.92C184.663 159.04 183.85 157.973 183.236 156.72C182.623 155.44 182.316 153.973 182.316 152.32C182.316 150.667 182.623 149.213 183.236 147.96C183.85 146.707 184.663 145.653 185.676 144.8C186.69 143.947 187.796 143.307 188.996 142.88C190.223 142.427 191.41 142.2 192.556 142.2C193.543 142.2 194.423 142.32 195.196 142.56C195.996 142.773 196.663 143.04 197.196 143.36C197.756 143.68 198.156 143.96 198.396 144.2C198.85 144.547 199.25 144.893 199.596 145.24C199.943 145.587 200.103 146.04 200.076 146.6C200.05 146.893 199.956 147.2 199.796 147.52C199.636 147.813 199.436 148.12 199.196 148.44C198.396 149.56 197.596 150.067 196.796 149.96C196.396 149.88 196.023 149.747 195.676 149.56C195.356 149.373 195.036 149.187 194.716 149C194.423 148.787 194.103 148.613 193.756 148.48C193.41 148.347 193.01 148.28 192.556 148.28C191.783 148.28 191.09 148.453 190.476 148.8C189.863 149.147 189.37 149.627 188.996 150.24C188.65 150.853 188.476 151.56 188.476 152.36C188.476 153.133 188.65 153.827 188.996 154.44C189.37 155.053 189.85 155.547 190.436 155.92C191.05 156.267 191.73 156.44 192.476 156.44C192.93 156.44 193.316 156.387 193.636 156.28C193.983 156.173 194.276 156.053 194.516 155.92C194.756 155.76 194.943 155.64 195.076 155.56C195.396 155.347 195.703 155.16 195.996 155C196.29 154.813 196.596 154.72 196.916 154.72C197.29 154.72 197.676 154.867 198.076 155.16C198.476 155.427 198.916 155.867 199.396 156.48C199.823 157.04 200.063 157.56 200.116 158.04C200.196 158.52 200.09 158.973 199.796 159.4C199.503 159.827 199.05 160.24 198.436 160.64C198.223 160.827 197.836 161.067 197.276 161.36C196.743 161.653 196.076 161.92 195.276 162.16C194.503 162.4 193.623 162.52 192.636 162.52Z" fill="black"/>
<path d="M3.50061 230.5C3.50061 230.5 9.50061 197.5 11.0006 198C12.5006 198.5 19.0006 220 20.0006 222C21.0006 224 24.5006 183 26.0006 183C27.5006 183 38.5006 222 40.0006 222C41.5006 222 52.0006 66 53.0006 66C54.0006 66 69.0006 143 70.0006 143C71.0006 143 82.0006 66 83.0006 66C84.0006 66 97.0006 183 97.0006 183" stroke="black" stroke-width="7" stroke-linecap="round"/>
<path d="M158.857 96.216C158.137 96.216 157.625 96.112 157.321 95.904C157.017 95.68 156.833 95.4 156.769 95.064C156.705 94.712 156.673 94.36 156.673 94.008V81.6C156.673 81.248 156.705 80.904 156.769 80.568C156.833 80.232 157.017 79.96 157.321 79.752C157.625 79.528 158.145 79.416 158.881 79.416C159.617 79.416 160.129 79.528 160.417 79.752C160.721 79.96 160.905 80.232 160.969 80.568C161.033 80.904 161.065 81.256 161.065 81.624V94.032C161.065 94.384 161.033 94.728 160.969 95.064C160.905 95.4 160.721 95.68 160.417 95.904C160.113 96.112 159.593 96.216 158.857 96.216ZM179.479 79.392C179.783 79.392 180.071 79.416 180.343 79.464C180.615 79.512 180.839 79.664 181.015 79.92C181.207 80.176 181.303 80.616 181.303 81.24C181.303 81.848 181.207 82.288 181.015 82.56C180.839 82.816 180.607 82.968 180.319 83.016C180.047 83.064 179.759 83.088 179.455 83.088H176.143V94.08C176.143 94.432 176.111 94.776 176.047 95.112C175.983 95.432 175.799 95.696 175.495 95.904C175.207 96.112 174.695 96.216 173.959 96.216C173.255 96.216 172.751 96.112 172.447 95.904C172.143 95.68 171.959 95.408 171.895 95.088C171.847 94.752 171.823 94.408 171.823 94.056V83.088H168.487C168.199 83.088 167.911 83.064 167.623 83.016C167.351 82.952 167.119 82.792 166.927 82.536C166.751 82.28 166.663 81.84 166.663 81.216C166.663 80.608 166.751 80.176 166.927 79.92C167.119 79.664 167.359 79.512 167.647 79.464C167.935 79.416 168.223 79.392 168.511 79.392H179.479Z" fill="#276FD0"/>
</svg>
